<svg width="19" height="18" viewBox="0 0 19 18" fill="none" xmlns="http://www.w3.org/2000/svg">
<path d="M18 16.678C18 17.086 17.6675 17.4171 17.2562 17.4171H1.63521C1.22386 17.4171 0.891357 17.086 0.891357 16.678V1.89561C0.891357 1.48762 1.22386 1.15649 1.63521 1.15649H17.2562C17.6675 1.15649 18 1.48762 18 1.89561V16.678Z" stroke="white"/>
<path d="M9.44572 6.33037C10.2674 6.33037 10.9334 5.66855 10.9334 4.85214C10.9334 4.03573 10.2674 3.3739 9.44572 3.3739C8.62408 3.3739 7.95801 4.03573 7.95801 4.85214C7.95801 5.66855 8.62408 6.33037 9.44572 6.33037Z" stroke="white"/>
<path d="M3.13843 4.85205H7.9549M10.9318 4.85205H15.784H10.9318Z" stroke="white"/>
<path d="M6.47038 10.7651C7.29202 10.7651 7.95809 10.1032 7.95809 9.28683C7.95809 8.47042 7.29202 7.80859 6.47038 7.80859C5.64874 7.80859 4.98267 8.47042 4.98267 9.28683C4.98267 10.1032 5.64874 10.7651 6.47038 10.7651Z" stroke="white"/>
<path d="M3.13843 9.28674H4.97947M7.9549 9.28674H15.784H7.9549Z" stroke="white"/>
<path d="M7.95793 15.1998C8.77957 15.1998 9.44564 14.5379 9.44564 13.7215C9.44564 12.9051 8.77957 12.2433 7.95793 12.2433C7.13629 12.2433 6.47021 12.9051 6.47021 13.7215C6.47021 14.5379 7.13629 15.1998 7.95793 15.1998Z" stroke="white"/>
<path d="M3.13843 13.7216H6.47016M9.44261 13.7216H15.784H9.44261Z" stroke="white"/>
</svg>
